PathFileType	4	(X/Y/Z)	c:/Users/goper/Files/vsCode/490R/osim_files/C12/C12_SSWS_02.trc
DataRate	CameraRate	NumFrames	NumMarkers	Units                	OrigDataRate	OrigDataStartFrame	OrigNumFrames
120.00	120.00	10	36	mm	120.0	757	1210
                Frame#	Time	LPSIS			LASIS			LTH1			LTH2			LTH3			LTH4			LLFE			LMFE			LSH1			LSH2			LSH3			LSH4			LLMAL			LMMAL			LCAL			LMTP5			LTOE			LMTP1			RPSIS			RASIS			RTH1			RTH2			RTH3			RTH4			RLFE			RMFE			RSH1			RSH2			RSH3			RSH4			RLMAL			RMMAL			RCAL			RMTP1			RTOE			RMTP5		
		X1	Y1	Z1	X2	Y2	Z2	X3	Y3	Z3	X4	Y4	Z4	X5	Y5	Z5	X6	Y6	Z6	X7	Y7	Z7	X8	Y8	Z8	X9	Y9	Z9	X10	Y10	Z10	X11	Y11	Z11	X12	Y12	Z12	X13	Y13	Z13	X14	Y14	Z14	X15	Y15	Z15	X16	Y16	Z16	X17	Y17	Z17	X18	Y18	Z18	X19	Y19	Z19	X20	Y20	Z20	X21	Y21	Z21	X22	Y22	Z22	X23	Y23	Z23	X24	Y24	Z24	X25	Y25	Z25	X26	Y26	Z26	X27	Y27	Z27	X28	Y28	Z28	X29	Y29	Z29	X30	Y30	Z30	X31	Y31	Z31	X32	Y32	Z32	X33	Y33	Z33	X34	Y34	Z34	X35	Y35	Z35	X36	Y36	Z36

757	6.30000	-1675.53772	1037.57812	347.21606	-1855.13159	1000.34265	383.79825	-1848.27344	722.69580	432.45255	-1867.54626	681.76068	425.52954	-1905.14600	746.63177	428.37524	-1914.44495	701.83459	426.39307	-1968.30896	537.63470	368.23959	-1940.10889	529.76202	247.03799	-1930.30542	429.54202	394.25763	-1941.04175	383.14474	399.75497	-1988.89734	436.54858	378.22519	-1989.54248	388.60403	383.55637	-1985.37012	97.85480	347.76880	-1993.63074	104.76157	265.82861	-1922.11816	69.07621	312.97507	-2121.46606	48.12522	364.85968	-2166.80444	85.51138	294.94507	-2137.61816	50.51033	256.67245	-1662.53394	1037.60657	233.80455	-1835.16589	1000.37903	130.56062	-1678.54565	730.68317	88.55300	-1674.66577	685.82721	95.12846	-1740.32385	717.25293	84.97432	-1725.59277	670.86987	90.27286	-1634.00916	513.40302	116.77544	-1653.05896	501.41461	248.74484	-1525.25818	475.36633	106.92392	-1498.39868	441.98712	100.41685	-1569.92651	429.98123	104.55324	-1534.42346	405.87912	97.14097	-1321.85193	203.91649	143.97766	-1349.98633	201.13200	222.98703	-1253.03394	233.62512	191.97916	-1369.91821	61.79123	243.33470	-1403.63989	60.65958	212.88948	-1357.97534	41.24048	138.59956
758	6.30833	-1687.58215	1040.14172	347.16800	-1866.90222	1002.48004	385.13696	-1860.43018	723.94464	433.40036	-1879.37891	683.54968	426.24814	-1917.70630	749.05634	429.40015	-1930.38525	706.08636	423.97498	-1979.30310	538.78827	368.93198	-1952.85083	531.85254	247.34128	-1938.71960	431.04166	395.35712	-1948.47058	384.35944	400.62845	-1997.44641	436.75616	379.24118	-1996.88110	388.74304	384.37833	-1986.01025	98.06210	347.72409	-1993.84692	104.93243	266.44748	-1922.80066	69.94598	312.02002	-2121.82837	47.26406	365.29611	-2167.25049	84.58779	295.25610	-2138.15894	49.77032	256.63153	-1674.83618	1039.25720	234.09799	-1847.37244	1002.00586	132.31841	-1695.60437	729.66138	88.02156	-1692.57080	684.62848	94.32968	-1757.94885	717.29449	84.91268	-1743.63281	670.37488	89.75560	-1654.34106	511.85770	114.97866	-1675.04810	498.09775	246.61504	-1545.05066	476.81033	105.77584	-1517.17871	444.31061	99.25735	-1587.96802	430.61804	102.01653	-1552.07422	407.33768	94.76183	-1335.84167	210.96634	141.13454	-1363.71423	207.02762	220.43036	-1269.54529	245.50345	188.50957	-1375.53052	67.00166	242.40204	-1409.08228	60.89088	211.56015	-1361.34521	44.81722	137.92271
759	6.31667	-1699.75476	1041.84668	347.30038	-1878.85217	1004.87457	386.52924	-1872.74097	725.94037	435.04880	-1891.52734	686.36475	427.31677	-1929.86072	751.32727	430.57742	-1942.57422	708.39404	425.06851	-1989.04602	539.59393	369.91934	-1964.60730	533.70404	248.10066	-1946.60767	432.36401	396.25333	-1955.35034	385.61948	401.48349	-2005.47766	437.04294	380.18167	-2003.80310	388.96997	385.12042	-1986.72437	98.26919	347.82800	-1994.27185	105.21251	267.01639	-1922.62378	70.77853	313.31723	-2122.18213	46.51865	365.52554	-2168.00122	83.07941	295.29639	-2138.37183	48.78924	256.50439	-1686.76526	1040.85608	234.05968	-1859.46130	1003.72461	134.13492	-1712.78589	728.56421	87.55992	-1710.69214	683.44330	93.50156	-1775.38708	717.45410	84.72203	-1761.46753	669.94598	88.91540	-1676.31848	509.04590	113.54523	-1697.57043	494.41153	244.43774	-1565.45178	478.12943	104.68021	-1536.45093	446.56885	98.34471	-1607.51172	430.79941	99.27837	-1570.69934	408.59439	92.48673	-1351.07471	218.30934	138.45903	-1378.29773	213.09668	218.14108	-1287.40784	257.54593	184.74760	-1380.41772	72.77641	240.83752	-1415.39709	61.44918	210.08849	-1365.66455	49.64927	136.83682
760	6.32500	-1710.80029	1045.83337	346.02618	-1890.60144	1007.20825	388.16782	-1884.05859	728.06354	436.79285	-1903.98547	688.35315	429.84308	-1941.10254	753.37152	431.84796	-1953.72632	710.35498	426.74582	-1997.77014	540.21765	371.35776	-1975.35254	535.21802	249.28981	-1954.01978	433.72852	397.21527	-1961.69788	386.68781	402.15787	-2012.98267	437.09955	381.04486	-2010.22620	389.16010	385.80621	-1987.35181	98.48314	347.92950	-1994.68225	105.39678	267.28391	-1923.33740	71.11564	313.45828	-2122.60547	46.01757	365.83823	-2168.87988	81.06505	295.49768	-2138.61084	48.10476	256.35889	-1698.51697	1042.39270	233.80472	-1871.29102	1005.37256	135.77386	-1729.91333	727.51501	86.96196	-1728.72290	682.31268	92.66548	-1792.69495	717.66351	84.26526	-1781.39148	671.73761	88.66294	-1697.53503	507.12476	111.54664	-1721.00110	490.61948	241.77805	-1586.34814	479.58136	103.39536	-1556.53845	448.73065	96.84370	-1626.91260	431.54260	96.81478	-1590.11914	410.00455	90.12550	-1367.78113	224.80017	137.00586	-1393.53162	219.28662	216.29944	-1306.41992	269.22189	181.35399	-1387.51514	79.11033	239.40511	-1422.38940	62.31153	208.63702	-1371.24988	55.46909	135.77953
761	6.33333	-1722.69519	1047.28418	345.95432	-1902.18738	1009.36694	389.65375	-1894.54333	729.93658	438.42999	-1914.65845	690.25781	432.18027	-1951.73438	755.01868	433.50226	-1964.74829	712.08868	429.02170	-2005.33923	540.36530	373.00516	-1984.87708	536.16003	250.70314	-1960.30408	435.32544	398.51837	-1967.50769	387.68146	402.73334	-2019.92090	437.10425	381.83423	-2016.15381	389.20340	386.44202	-1987.83447	98.66520	347.90137	-1995.14514	105.51684	267.32053	-1923.64941	71.50492	313.53531	-2122.85229	45.71078	366.01291	-2169.25610	80.02805	295.94635	-2138.79980	47.73555	256.25568	-1710.20276	1043.85388	233.45554	-1882.72070	1006.76538	137.34126	-1746.87500	726.44006	86.28751	-1746.70483	681.27692	91.68910	-1809.43420	718.23376	84.25142	-1799.58008	671.89624	87.70601	-1718.67505	505.41110	109.38670	-1744.24585	487.85941	239.96175	-1608.19995	480.80182	101.91155	-1577.58020	450.74084	95.14737	-1647.64893	432.04700	94.07206	-1610.34265	411.21082	87.72733	-1384.36902	231.92805	135.20808	-1409.88025	225.41289	214.65018	-1327.16235	280.55295	178.28795	-1396.54016	86.28671	237.33487	-1429.82654	62.81606	207.14677	-1377.97717	61.76270	134.56990
762	6.34167	-1733.93982	1049.02478	345.69629	-1913.53369	1011.44550	391.23975	-1904.58179	731.85229	439.99261	-1923.79224	691.72925	433.95630	-1961.55066	756.07861	435.07935	-1973.56726	713.02435	430.46341	-2011.96143	540.11328	374.89359	-1993.23181	536.69916	252.03569	-1966.06860	436.05685	398.90494	-1972.38977	388.30838	403.00955	-2025.82593	436.85345	382.65439	-2021.09021	388.96304	387.07910	-1988.31787	98.84296	347.86002	-1995.57825	105.62186	267.45676	-1924.03491	71.94313	313.71167	-2123.10083	45.42682	366.18307	-2169.83789	79.75259	295.81738	-2138.99658	47.28842	256.15710	-1721.51050	1045.08398	232.98848	-1894.04846	1007.93549	138.88335	-1763.63757	725.54095	85.54794	-1764.74146	680.25610	90.55002	-1826.73840	718.71173	82.79234	-1817.64368	672.20380	86.65299	-1740.09143	503.99466	107.26539	-1767.59521	486.13113	238.28482	-1630.76562	481.85248	100.07473	-1599.37817	452.49997	93.24603	-1669.04626	432.47885	91.51685	-1631.52466	412.28745	85.26153	-1401.58862	238.47870	133.67523	-1427.43933	231.11484	213.16811	-1349.24731	291.07092	175.65582	-1406.20837	92.99300	235.67130	-1437.60376	63.35181	205.44095	-1385.93347	67.90505	133.52014
763	6.35000	-1745.03809	1050.62378	345.33167	-1924.77490	1013.34393	392.75024	-1912.76978	732.81415	441.21866	-1931.83752	692.61823	434.98941	-1970.57727	756.26929	436.68039	-1981.86829	713.24213	430.98087	-2017.33899	539.39954	376.70615	-2000.73096	537.15503	253.02762	-1970.64343	436.40726	399.08807	-1976.20825	388.59518	403.26056	-2029.98059	436.18143	383.57425	-2025.25305	388.55472	387.85559	-1988.78394	98.88078	347.74814	-1995.96350	105.78245	267.68741	-1924.34412	72.32539	313.83521	-2123.26294	45.12317	366.36383	-2170.29077	79.13192	295.92038	-2139.06714	47.27083	255.74661	-1732.43750	1046.04333	232.56120	-1905.04932	1009.07935	140.20543	-1780.28320	725.06982	84.76340	-1782.37524	679.88239	89.51603	-1843.32776	719.57892	81.66975	-1835.48889	673.10193	85.35948	-1761.73047	503.29953	105.17564	-1790.58044	485.47299	236.40260	-1654.14307	482.70944	98.18661	-1621.89771	454.06097	91.01408	-1691.20740	432.79514	89.25901	-1653.68909	413.17471	83.17828	-1419.71924	244.62845	132.15627	-1445.72021	236.25674	211.80524	-1371.35071	300.12585	173.86526	-1418.16785	98.61498	234.51906	-1446.26746	64.34887	203.80815	-1395.40771	74.63515	133.32748
764	6.35833	-1755.78198	1052.11743	345.35751	-1935.73401	1014.99817	394.15619	-1921.66919	733.35950	442.32629	-1939.17505	692.89160	435.88052	-1978.98828	755.95105	438.18555	-1989.46619	712.74188	432.35165	-2022.41577	538.47284	378.15781	-2007.10803	537.25677	254.00108	-1974.24988	436.40857	399.14041	-1979.24304	388.47910	403.32254	-2033.75049	435.46503	384.77283	-2028.81067	388.19550	388.98450	-1989.46875	98.55972	347.27859	-1996.24976	105.94985	267.90619	-1924.63184	72.71030	313.89197	-2123.43604	44.86215	366.50345	-2170.76685	78.43800	296.14194	-2139.24463	47.06924	255.69963	-1743.14966	1046.79224	232.33142	-1917.85034	1010.89465	140.78821	-1796.74963	725.28986	84.07119	-1799.73340	680.02594	88.44715	-1859.46216	721.52277	81.40191	-1853.01013	674.60840	83.85157	-1783.05029	503.58997	102.76923	-1812.80310	486.14035	234.74203	-1677.49438	483.51080	95.86153	-1646.24097	454.33673	89.44296	-1713.94482	432.96759	87.39229	-1675.95911	414.03281	80.97070	-1438.56775	250.25877	130.84114	-1464.90344	241.23514	210.88097	-1393.39941	307.83582	173.12143	-1431.30334	103.43867	233.64360	-1455.94336	64.72335	201.09366	-1406.26465	80.84268	133.79700
765	6.36667	-1766.26746	1053.55872	345.48419	-1946.52917	1016.56732	395.61984	-1928.38965	733.40857	442.94263	-1945.34338	692.80499	436.41586	-1986.54102	755.23309	439.66864	-1996.30701	711.90125	432.83673	-2027.11133	537.61963	379.62439	-2013.09753	537.49445	255.14059	-1977.18665	436.36237	399.13467	-1981.56653	388.38696	403.31403	-2036.90601	434.78885	385.97864	-2031.42749	387.62003	390.03671	-1989.72241	98.58822	347.31702	-1996.58081	106.06131	268.02585	-1924.86340	73.12915	313.92258	-2123.60205	44.71426	366.62082	-2171.11841	78.04176	296.18475	-2139.46997	46.88907	255.69048	-1753.37964	1047.55688	231.96214	-1929.04590	1012.21692	141.82535	-1812.82739	726.24042	83.48341	-1816.92542	681.02209	87.37987	-1875.96423	723.51581	79.49577	-1870.46509	676.58044	82.37925	-1804.84888	504.44989	100.52339	-1835.25793	488.20251	232.57426	-1701.12085	484.44589	93.25123	-1669.39124	455.59433	86.92016	-1736.84631	433.18375	85.77533	-1698.78577	414.70834	79.21119	-1458.03772	255.53825	129.68367	-1484.47534	245.41919	209.84528	-1415.04993	314.56067	173.00999	-1446.27356	108.28400	232.51562	-1468.19861	67.15327	198.33414	-1418.87781	87.51691	132.61929
766	6.37500	-1776.45569	1054.87207	345.71640	-1957.16870	1018.01727	396.90164	-1935.25305	733.48529	443.46188	-1951.31567	692.62146	436.92685	-1993.48779	754.52069	441.07346	-2002.39124	711.06311	434.03625	-2031.34705	536.76984	380.66870	-2018.49780	537.36945	256.13663	-1979.48511	436.27289	399.09183	-1983.37927	388.28680	403.47293	-2039.43567	434.06412	387.21329	-2033.56018	386.98087	391.09323	-1990.00281	98.66183	347.29504	-1996.94690	106.21358	268.06351	-1924.99792	73.55517	313.86810	-2123.67993	44.57538	366.70541	-2171.34180	77.71139	296.23950	-2139.64502	46.77752	255.72586	-1762.26904	1048.72595	230.58887	-1940.17249	1013.78058	142.76257	-1828.61316	727.62109	82.91363	-1833.83179	682.44031	86.34500	-1891.83228	726.18121	78.46457	-1886.98840	679.26416	80.71369	-1826.74487	505.64084	98.22034	-1856.90271	489.97385	230.82205	-1724.59253	485.48788	90.53758	-1692.63440	456.85046	84.43774	-1759.91797	433.71393	84.20744	-1721.77051	415.39490	77.71696	-1477.39624	261.06161	128.77992	-1504.68555	249.75198	208.80785	-1436.55969	320.81808	173.44846	-1464.27844	113.59578	231.22566	-1484.67102	74.18179	196.91830	-1434.48157	94.34515	130.84412
